<svg width="24" height="24" viewBox="0 0 24 24" fill="none" xmlns="http://www.w3.org/2000/svg">
<path d="M19 11.117V8.03899C19.0188 6.68514 18.6331 5.35649 17.8921 4.22323C17.1511 3.08998 16.0887 2.20372 14.841 1.67799C13.7714 1.21438 12.6033 1.02362 11.4418 1.12284C10.2802 1.22205 9.16143 1.60813 8.1859 2.24642C7.21037 2.88472 6.40859 3.75525 5.85253 4.77989C5.29647 5.80452 5.00353 6.9512 5 8.11699V11.117C5 14.417 2 15.217 2 17.117C2 18.817 5.9 20.117 12 20.117C18.1 20.117 22 18.817 22 17.117C22 15.217 19 14.417 19 11.117Z" stroke="white" stroke-width="2" stroke-miterlimit="10" stroke-linecap="square"/>
<path d="M12.02 21.528C11.1147 21.528 10.2107 21.4963 9.30798 21.433C9.48896 22.0106 9.84961 22.5153 10.3374 22.8737C10.8252 23.232 11.4147 23.4253 12.02 23.4253C12.6253 23.4253 13.2147 23.232 13.7026 22.8737C14.1904 22.5153 14.551 22.0106 14.732 21.433C13.883 21.5 12.981 21.528 12.02 21.528Z" fill="white"/>
</svg>
