<svg width="25" height="24" viewBox="0 0 25 24" fill="none" xmlns="http://www.w3.org/2000/svg">
<path d="M22.5831 24C22.3913 23.9996 22.2016 23.9605 22.0253 23.8851C21.849 23.8097 21.6897 23.6994 21.5571 23.561L14.9921 16.993H14.9861C13.3906 18.1801 11.4537 18.819 9.46505 18.814H9.42805C7.56671 18.8098 5.7481 18.2558 4.20058 17.2215C2.65305 16.1872 1.44558 14.7187 0.729797 13.0005C0.0140097 11.2823 -0.178194 9.39093 0.177321 7.56385C0.532835 5.73677 1.42022 4.05545 2.72805 2.731C4.48032 0.988563 6.84892 0.00727155 9.32005 0L9.36105 0C11.8594 0.0147278 14.251 1.01468 16.0163 2.78261C17.7816 4.55055 18.778 6.94364 18.7891 9.442C18.8025 11.4345 18.1711 13.3779 16.9891 14.982L23.5601 21.555C23.7658 21.7502 23.9082 22.0026 23.9689 22.2796C24.0297 22.5566 24.0059 22.8455 23.9006 23.1088C23.7954 23.3721 23.6136 23.5978 23.3787 23.7567C23.1438 23.9156 22.8666 24.0004 22.5831 24V24ZM9.33205 1.882C8.34949 1.88251 7.37672 2.0772 6.46964 2.45487C5.56257 2.83254 4.73907 3.38575 4.04648 4.0827C3.3539 4.77966 2.80587 5.60662 2.43391 6.51605C2.06195 7.42548 1.87339 8.39946 1.87905 9.382C1.89444 11.3788 2.69375 13.2896 4.1047 14.7026C5.51565 16.1156 7.42529 16.9177 9.42205 16.936H9.45105C10.434 16.936 11.4073 16.7417 12.315 16.3643C13.2226 15.9869 14.0467 15.4338 14.7399 14.7368C15.4331 14.0399 15.9817 13.2127 16.3541 12.303C16.7265 11.3933 16.9155 10.419 16.9101 9.436C16.8954 7.43897 16.0964 5.52772 14.6853 4.11455C13.2741 2.70137 11.3641 1.89953 9.36705 1.882H9.33205Z" fill="#999999"/>
</svg>
