<svg width="32" height="32" viewBox="0 0 32 32" fill="none" xmlns="http://www.w3.org/2000/svg">
<path d="M32 10.01V8.863C32 8.541 31.994 8.219 31.986 7.898C31.9766 7.19499 31.9145 6.49369 31.8 5.8C31.6813 5.10421 31.4591 4.43008 31.141 3.8C30.4962 2.53369 29.4665 1.50439 28.2 0.86C27.5699 0.54163 26.8958 0.319175 26.2 0.2C25.5056 0.0864893 24.8036 0.0253171 24.1 0.017C23.78 0.008 23.459 0 23.137 0H8.864C8.542 0 8.22 0.008 7.9 0.017C7.1964 0.0252945 6.49443 0.0864669 5.8 0.2C5.10419 0.319175 4.43008 0.54163 3.8 0.86C2.53385 1.50456 1.50456 2.53385 0.86 3.8C0.541505 4.43003 0.319044 5.10415 0.2 5.8C0.0864369 6.49442 0.0252643 7.1964 0.017 7.9C0.00566667 8.22067 0 8.54167 0 8.863V23.137C0 23.4583 0.00466667 23.78 0.014 24.102C0.0233603 24.805 0.0855353 25.5063 0.2 26.2C0.318772 26.8958 0.540893 27.5699 0.859 28.2C1.50439 29.4659 2.53388 30.495 3.8 31.14C4.43019 31.4577 5.10429 31.6795 5.8 31.798C6.49438 31.9122 7.19635 31.974 7.9 31.983C8.222 31.992 8.544 31.995 8.866 31.997H23.137C23.459 31.997 23.781 31.991 24.103 31.983C24.8066 31.974 25.5086 31.9122 26.203 31.798C26.8987 31.6795 27.5728 31.4577 28.203 31.14C29.4676 30.4944 30.4957 29.4653 31.14 28.2C31.4581 27.5699 31.6802 26.8958 31.799 26.2C31.9132 25.5056 31.9751 24.8036 31.984 24.1C31.993 23.778 31.996 23.456 31.998 23.135V21.988L32 10.01Z" fill="url(#paint0_linear)"/>
<g filter="url(#filter0_d)">
<path d="M25.446 12.083C25.4065 11.9852 25.3481 11.8961 25.2741 11.8209C25.2001 11.7457 25.112 11.6858 25.0147 11.6449C24.9175 11.6039 24.8131 11.5825 24.7076 11.582C24.6021 11.5815 24.4976 11.6019 24.4 11.642V11.642C24.374 11.653 24.35 11.665 24.322 11.679C24.2504 11.7193 24.1862 11.7714 24.132 11.833C21.987 14.272 18.677 18.043 16.923 20.045L16.904 20.066C16.689 20.2973 16.3916 20.4345 16.0762 20.448C15.7608 20.4614 15.4528 20.3501 15.219 20.138L10.899 16.277C10.6387 16.0387 10.4838 15.7067 10.4682 15.3542C10.4527 15.0017 10.5778 14.6574 10.816 14.397V14.397V14.391C11.0557 14.132 11.3885 13.9787 11.7412 13.9648C12.0938 13.951 12.4376 14.0776 12.697 14.317V14.317L14.997 16.357L15.022 16.38C15.2608 16.5865 15.5714 16.6906 15.8865 16.6696C16.2015 16.6486 16.4956 16.5043 16.705 16.268V16.268L22.705 9.41202C22.7933 9.30217 22.8571 9.17463 22.892 9.03802C22.9208 8.91761 22.9224 8.79228 22.8966 8.67118C22.8708 8.55008 22.8183 8.43626 22.743 8.33802V8.33802C22.6944 8.27273 22.6387 8.21303 22.577 8.16002C20.6276 6.49711 18.1357 5.60752 15.574 5.66004C13.0123 5.71255 10.559 6.7035 8.67941 8.4449C6.79987 10.1863 5.62487 12.557 5.37732 15.1073C5.12978 17.6576 5.82691 20.21 7.33646 22.2803C8.84602 24.3507 11.063 25.795 13.5668 26.3392C16.0706 26.8834 18.687 26.4897 20.9198 25.2327C23.1525 23.9757 24.8463 21.9429 25.6796 19.52C26.513 17.097 26.4281 14.4525 25.441 12.088L25.446 12.083Z" fill="white"/>
</g>
<defs>
<filter id="filter0_d" x="4.32837" y="5.65784" width="22.92" height="22.92" filterUnits="userSpaceOnUse" color-interpolation-filters="sRGB">
<feFlood flood-opacity="0" result="BackgroundImageFix"/>
<feColorMatrix in="SourceAlpha" type="matrix" values="0 0 0 0 0 0 0 0 0 0 0 0 0 0 0 0 0 0 127 0" result="hardAlpha"/>
<feOffset dy="1"/>
<feGaussianBlur stdDeviation="0.5"/>
<feColorMatrix type="matrix" values="0 0 0 0 0 0 0 0 0 0 0 0 0 0 0 0 0 0 0.161 0"/>
<feBlend mode="normal" in2="BackgroundImageFix" result="effect1_dropShadow"/>
<feBlend mode="normal" in="SourceGraphic" in2="effect1_dropShadow" result="shape"/>
</filter>
<linearGradient id="paint0_linear" x1="16" y1="0" x2="16" y2="31.997" gradientUnits="userSpaceOnUse">
<stop stop-color="#55F26F"/>
<stop offset="1" stop-color="#0FBE2C"/>
</linearGradient>
</defs>
</svg>
