<svg width="24" height="24" viewBox="0 0 24 24" fill="none" xmlns="http://www.w3.org/2000/svg">
<path d="M8.66699 11.2C10.8761 11.2 12.667 9.40915 12.667 7.20001C12.667 4.99087 10.8761 3.20001 8.66699 3.20001C6.45785 3.20001 4.66699 4.99087 4.66699 7.20001C4.66699 9.40915 6.45785 11.2 8.66699 11.2Z" stroke="#616161" stroke-width="2" stroke-miterlimit="10" stroke-linecap="round"/>
<path d="M18 8.86702C19.473 8.86702 20.667 7.67296 20.667 6.20002C20.667 4.72708 19.473 3.53302 18 3.53302C16.5271 3.53302 15.333 4.72708 15.333 6.20002C15.333 7.67296 16.5271 8.86702 18 8.86702Z" stroke="#616161" stroke-width="2" stroke-miterlimit="10" stroke-linecap="round"/>
<path d="M8.66705 14.333C7.09628 14.3342 5.57634 14.8898 4.37501 15.9018C3.17368 16.9138 2.36805 18.3173 2.10005 19.865C2.0796 20.0065 2.08996 20.1508 2.13042 20.288C2.17089 20.4252 2.24051 20.552 2.33452 20.6598C2.42852 20.7675 2.5447 20.8537 2.6751 20.9125C2.8055 20.9712 2.94704 21.001 3.09005 21H14.2441C14.3873 21.0015 14.5292 20.9719 14.66 20.9134C14.7907 20.8549 14.9073 20.7687 15.0016 20.6609C15.096 20.5531 15.1658 20.4261 15.2065 20.2887C15.2471 20.1514 15.2575 20.0068 15.2371 19.865C14.9692 18.3167 14.1631 16.9127 12.9611 15.9006C11.7592 14.8885 10.2384 14.3333 8.66705 14.333V14.333Z" stroke="#616161" stroke-width="2" stroke-miterlimit="10" stroke-linecap="round"/>
<path d="M14.979 12.984C15.731 12.3385 16.6814 11.9702 17.672 11.9403C18.6626 11.9105 19.6335 12.221 20.423 12.82C21.2542 13.6294 21.7748 14.705 21.894 15.859C21.9142 16.0012 21.9036 16.146 21.8629 16.2837C21.8222 16.4213 21.7523 16.5486 21.658 16.6569C21.5637 16.7651 21.4472 16.8518 21.3164 16.911C21.1856 16.9702 21.0436 17.0006 20.9 17H18" stroke="#616161" stroke-width="2" stroke-miterlimit="10" stroke-linecap="round"/>
</svg>
