<svg width="24" height="24" viewBox="0 0 24 24" fill="none" xmlns="http://www.w3.org/2000/svg">
<path d="M21 17H15C14.4477 17 14 17.4477 14 18C14 18.5523 14.4477 19 15 19H21C21.5523 19 22 18.5523 22 18C22 17.4477 21.5523 17 21 17Z" fill="#616161"/>
<path d="M17 15V21C17 21.5523 17.4477 22 18 22C18.5523 22 19 21.5523 19 21V15C19 14.4477 18.5523 14 18 14C17.4477 14 17 14.4477 17 15Z" fill="#616161"/>
<path d="M11 20H6C5.46957 20 4.96086 19.7893 4.58578 19.4142C4.21071 19.0391 4 18.5304 4 18V6C4 5.46957 4.21071 4.96086 4.58578 4.58579C4.96086 4.21071 5.46957 4 6 4H18C18.5304 4 19.0391 4.21071 19.4142 4.58579C19.7893 4.96086 20 5.46957 20 6V11" stroke="#616161" stroke-width="2" stroke-linecap="round" stroke-linejoin="round"/>
<path d="M10 4H8V20H10V4Z" fill="#616161"/>
<path d="M4 8V10L20 10V8H4Z" fill="#616161"/>
</svg>
