<svg width="24" height="24" viewBox="0 0 24 24" fill="none" xmlns="http://www.w3.org/2000/svg">
<path d="M12 22C17.5228 22 22 17.5228 22 12C22 6.47715 17.5228 2 12 2C6.47715 2 2 6.47715 2 12C2 17.5228 6.47715 22 12 22Z" stroke="white" stroke-width="2" stroke-miterlimit="10" stroke-linecap="square"/>
<path d="M11.135 13.279C11.1161 12.7786 11.2329 12.2824 11.473 11.843C11.8147 11.3489 12.2116 10.8953 12.656 10.491L13.416 9.731C13.5745 9.50873 13.6627 9.24396 13.669 8.971C13.6703 8.80684 13.6328 8.6447 13.5594 8.49783C13.4861 8.35097 13.379 8.22355 13.247 8.126C13.11 8.00346 12.9493 7.91025 12.7749 7.85212C12.6006 7.79399 12.4161 7.77217 12.233 7.788C11.8261 7.78424 11.4329 7.93507 11.133 8.21C10.8425 8.44924 10.6356 8.77455 10.542 9.139L8.59998 8.298C8.8396 7.57177 9.27865 6.92758 9.86698 6.439C10.541 5.91396 11.3793 5.64469 12.233 5.679C12.8764 5.67881 13.5117 5.82302 14.092 6.101C14.626 6.35351 15.0689 6.76497 15.36 7.279C15.6656 7.75643 15.8133 8.31797 15.782 8.884C15.8105 9.41237 15.6936 9.93844 15.444 10.405C15.135 10.8997 14.7654 11.3538 14.344 11.757C14.0123 11.9933 13.7498 12.314 13.584 12.686C13.4012 12.9915 13.3132 13.3444 13.331 13.7V13.953H11.131V13.279H11.135ZM12.235 18.095C12.0462 18.0966 11.8591 18.0601 11.6849 17.9876C11.5106 17.9151 11.3528 17.8081 11.221 17.673C10.9632 17.3983 10.8137 17.0395 10.8 16.663C10.7983 16.4743 10.8349 16.2871 10.9074 16.1129C10.9799 15.9386 11.0869 15.7808 11.222 15.649C11.3553 15.5158 11.5135 15.4102 11.6876 15.3382C11.8617 15.2662 12.0483 15.2292 12.2367 15.2293C12.4251 15.2294 12.6116 15.2666 12.7857 15.3388C12.9597 15.411 13.1178 15.5167 13.251 15.65C13.3841 15.7833 13.4897 15.9415 13.5618 16.1156C13.6338 16.2897 13.6708 16.4763 13.6707 16.6647C13.6706 16.8531 13.6334 17.0397 13.5612 17.2137C13.489 17.3877 13.3833 17.5458 13.25 17.679C13.1302 17.8299 12.974 17.9479 12.7961 18.0219C12.6182 18.0959 12.4244 18.1234 12.233 18.102L12.235 18.095Z" fill="white"/>
</svg>
