<svg width="24" height="24" viewBox="0 0 24 24" fill="none" xmlns="http://www.w3.org/2000/svg">
<path opacity="0.87" d="M10 10.2C12.2091 10.2 14 8.40915 14 6.20001C14 3.99087 12.2091 2.20001 10 2.20001C7.79086 2.20001 6 3.99087 6 6.20001C6 8.40915 7.79086 10.2 10 10.2Z" stroke="white" stroke-width="2" stroke-miterlimit="10" stroke-linecap="round"/>
<path opacity="0.87" d="M8.99995 13.333C7.4287 13.3331 5.90795 13.888 4.70594 14.9C3.50393 15.9119 2.69787 17.3158 2.42995 18.864C2.40912 19.0059 2.41931 19.1506 2.45981 19.2882C2.50031 19.4258 2.57016 19.553 2.66455 19.6609C2.75894 19.7689 2.87562 19.8551 3.00655 19.9137C3.13748 19.9722 3.27954 20.0017 3.42295 20H8.99995" stroke="white" stroke-width="2" stroke-miterlimit="10" stroke-linecap="round"/>
<path opacity="0.87" d="M17 12C17.9889 12 18.9556 12.2932 19.7779 12.8427C20.6001 13.3921 21.241 14.173 21.6194 15.0866C21.9978 16.0002 22.0969 17.0055 21.9039 17.9755C21.711 18.9454 21.2348 19.8363 20.5355 20.5355C19.8363 21.2348 18.9454 21.711 17.9755 21.9039C17.0055 22.0969 16.0002 21.9978 15.0866 21.6194C14.173 21.241 13.3921 20.6001 12.8427 19.7779C12.2932 18.9556 12 17.9889 12 17C12 15.6739 12.5268 14.4021 13.4645 13.4645C14.4021 12.5268 15.6739 12 17 12V12Z" stroke="white" stroke-width="2" stroke-miterlimit="10"/>
<path opacity="0.87" d="M19.083 15.333L16.818 17.933C16.7794 17.9771 16.7321 18.0125 16.6789 18.0371C16.6258 18.0617 16.5681 18.0748 16.5095 18.0757C16.451 18.0765 16.3929 18.0651 16.3391 18.042C16.2852 18.019 16.2368 17.9849 16.197 17.942L15.333 17" stroke="white" stroke-width="2" stroke-miterlimit="10" stroke-linecap="round"/>
</svg>
