<svg width="24" height="24" viewBox="0 0 24 24" fill="none" xmlns="http://www.w3.org/2000/svg">
<path d="M4 14C4.53043 14 5.03914 14.2107 5.41422 14.5858C5.78929 14.9609 6 15.4696 6 16V18C6 18.5304 5.78929 19.0391 5.41422 19.4142C5.03914 19.7893 4.53043 20 4 20C3.46957 20 2.96086 19.7893 2.58578 19.4142C2.21071 19.0391 2 18.5304 2 18V16C2 15.4696 2.21071 14.9609 2.58578 14.5858C2.96086 14.2107 3.46957 14 4 14V14Z" stroke="white" stroke-width="2"/>
<path d="M12 9C12.5304 9 13.0391 9.21071 13.4142 9.58579C13.7893 9.96086 14 10.4696 14 11V18C14 18.5304 13.7893 19.0391 13.4142 19.4142C13.0391 19.7893 12.5304 20 12 20C11.4696 20 10.9609 19.7893 10.5858 19.4142C10.2107 19.0391 10 18.5304 10 18V11C10 10.4696 10.2107 9.96086 10.5858 9.58579C10.9609 9.21071 11.4696 9 12 9V9Z" stroke="white" stroke-width="2"/>
<path d="M20 4C20.5304 4 21.0391 4.21071 21.4142 4.58579C21.7893 4.96086 22 5.46957 22 6V18C22 18.5304 21.7893 19.0391 21.4142 19.4142C21.0391 19.7893 20.5304 20 20 20C19.4696 20 18.9609 19.7893 18.5858 19.4142C18.2107 19.0391 18 18.5304 18 18V6C18 5.46957 18.2107 4.96086 18.5858 4.58579C18.9609 4.21071 19.4696 4 20 4Z" stroke="white" stroke-width="2"/>
</svg>
